[Header]
FileType HTR
DataType HTRS
FileVersion 1
NumSegments 64
NumFrames 4
DataFrameRate 30
EulerRotationOrder ZYX
CalibrationUnits mm
RotationUnits Degrees
GlobalAxisofGravity Y
BoneLengthAxis Y
ScaleFactor 1.0
[SegmentNames&Hierarchy]
Hips	GLOBAL
Spine	Hips
Spine1	Spine
Spine2	Spine1
Neck	Spine2
Head	Neck
LeftEye	Head
RightEye	Head
LeftShoulder	Spine2
LeftArm	LeftShoulder
LeftForeArm	LeftArm
LeftHand	LeftForeArm
LeftHandThumb1	LeftHand
LeftHandThumb2	LeftHandThumb1
LeftHandThumb3	LeftHandThumb2
LeftHandThumb4	LeftHandThumb3
LeftHandIndex1	LeftHand
LeftHandIndex2	LeftHandIndex1
LeftHandIndex3	LeftHandIndex2
LeftHandIndex4	LeftHandIndex3
LeftHandMiddle1	LeftHand
LeftHandMiddle2	LeftHandMiddle1
LeftHandMiddle3	LeftHandMiddle2
LeftHandMiddle4	LeftHandMiddle3
LeftHandRing1	LeftHand
LeftHandRing2	LeftHandRing1
LeftHandRing3	LeftHandRing2
LeftHandRing4	LeftHandRing3
LeftHandPinky1	LeftHand
LeftHandPinky2	LeftHandPinky1
LeftHandPinky3	LeftHandPinky2
LeftHandPinky4	LeftHandPinky3
RightShoulder	Spine2
RightArm	RightShoulder
RightForeArm	RightArm
RightHand	RightForeArm
RightHandPinky1	RightHand
RightHandPinky2	RightHandPinky1
RightHandPinky3	RightHandPinky2
RightHandPinky4	RightHandPinky3
RightHandRing1	RightHand
RightHandRing2	RightHandRing1
RightHandRing3	RightHandRing2
RightHandRing4	RightHandRing3
RightHandMiddle1	RightHand
RightHandMiddle2	RightHandMiddle1
RightHandMiddle3	RightHandMiddle2
RightHandMiddle4	RightHandMiddle3
RightHandIndex1	RightHand
RightHandIndex2	RightHandIndex1
RightHandIndex3	RightHandIndex2
RightHandIndex4	RightHandIndex3
RightHandThumb1	RightHand
RightHandThumb2	RightHandThumb1
RightHandThumb3	RightHandThumb2
RightHandThumb4	RightHandThumb3
LeftUpLeg	Hips
LeftLeg	LeftUpLeg
LeftFoot	LeftLeg
LeftToeBase	LeftFoot
RightUpLeg	Hips
RightLeg	RightUpLeg
RightFoot	RightLeg
RightToeBase	RightFoot
[BasePosition]
Hips	0	0	0	0	0	0	1
Spine	0	0	0	0	0	0	1
Spine1	0	0	0	0	0	0	1
Spine2	0	0	0	0	0	0	1
Neck	0	0	0	0	0	0	1
Head	0	0	0	0	0	0	1
LeftEye	0	0	0	0	0	0	1
RightEye	0	0	0	0	0	0	1
LeftShoulder	0	0	0	0	0	0	1
LeftArm	0	0	0	0	0	0	1
LeftForeArm	0	0	0	0	0	0	1
LeftHand	0	0	0	0	0	0	1
LeftHandThumb1	0	0	0	0	0	0	1
LeftHandThumb2	0	0	0	0	0	0	1
LeftHandThumb3	0	0	0	0	0	0	1
LeftHandThumb4	0	0	0	0	0	0	1
LeftHandIndex1	0	0	0	0	0	0	1
LeftHandIndex2	0	0	0	0	0	0	1
LeftHandIndex3	0	0	0	0	0	0	1
LeftHandIndex4	0	0	0	0	0	0	1
LeftHandMiddle1	0	0	0	0	0	0	1
LeftHandMiddle2	0	0	0	0	0	0	1
LeftHandMiddle3	0	0	0	0	0	0	1
LeftHandMiddle4	0	0	0	0	0	0	1
LeftHandRing1	0	0	0	0	0	0	1
LeftHandRing2	0	0	0	0	0	0	1
LeftHandRing3	0	0	0	0	0	0	1
LeftHandRing4	0	0	0	0	0	0	1
LeftHandPinky1	0	0	0	0	0	0	1
LeftHandPinky2	0	0	0	0	0	0	1
LeftHandPinky3	0	0	0	0	0	0	1
LeftHandPinky4	0	0	0	0	0	0	1
RightShoulder	0	0	0	0	0	0	1
RightArm	0	0	0	0	0	0	1
RightForeArm	0	0	0	0	0	0	1
RightHand	0	0	0	0	0	0	1
RightHandPinky1	0	0	0	0	0	0	1
RightHandPinky2	0	0	0	0	0	0	1
RightHandPinky3	0	0	0	0	0	0	1
RightHandPinky4	0	0	0	0	0	0	1
RightHandRing1	0	0	0	0	0	0	1
RightHandRing2	0	0	0	0	0	0	1
RightHandRing3	0	0	0	0	0	0	1
RightHandRing4	0	0	0	0	0	0	1
RightHandMiddle1	0	0	0	0	0	0	1
RightHandMiddle2	0	0	0	0	0	0	1
RightHandMiddle3	0	0	0	0	0	0	1
RightHandMiddle4	0	0	0	0	0	0	1
RightHandIndex1	0	0	0	0	0	0	1
RightHandIndex2	0	0	0	0	0	0	1
RightHandIndex3	0	0	0	0	0	0	1
RightHandIndex4	0	0	0	0	0	0	1
RightHandThumb1	0	0	0	0	0	0	1
RightHandThumb2	0	0	0	0	0	0	1
RightHandThumb3	0	0	0	0	0	0	1
RightHandThumb4	0	0	0	0	0	0	1
LeftUpLeg	0	0	0	0	0	0	1
LeftLeg	0	0	0	0	0	0	1
LeftFoot	0	0	0	0	0	0	1
LeftToeBase	0	0	0	0	0	0	1
RightUpLeg	0	0	0	0	0	0	1
RightLeg	0	0	0	0	0	0	1
RightFoot	0	0	0	0	0	0	1
RightToeBase	0	0	0	0	0	0	1
[Hips]
18	1.675494671	586.5107422	310.6876221	26.29509354	1.189306855	-0.6071032286	1.0
19	1.815200925	574.1398315	320.8187866	29.38254929	1.26248312	-0.6922916174	1.0
20	1.900710464	565.7341919	332.5635071	32.38137817	1.329787254	-0.7093497515	1.0
21	1.982849836	561.4500732	346.9828796	35.21826553	1.412908673	-0.6962221861	1.0
[Spine]
18	0	101.8159943	1.315000057	0.3780334592	-0.7964576483	1.070912957	1.0
19	0	101.8159943	1.315000057	2.436244488	-0.7608243823	1.222657442	1.0
20	0	101.8159943	1.315000057	4.458132267	-0.7432570457	1.311605215	1.0
21	0	101.8159943	1.315000057	6.396733761	-0.752613306	1.383675337	1.0
[Spine1]
18	0	100.8349991	-10.00800037	-13.42900276	-2.551601028e-05	6.238818605e-05	1.0
19	0	100.8349991	-10.00800037	-11.49422359	-2.76493447e-05	6.147218664e-05	1.0
20	0	100.8349991	-10.00800037	-9.5900383	-2.971761205e-05	6.050064985e-05	1.0
21	0	100.8349991	-10.00800037	-7.760270119	-3.167214163e-05	5.949979459e-05	1.0
[Spine2]
18	0	91	-13.73399925	-8.290777206	7.256564061e-08	3.0817111e-07	1.0
19	0	91	-13.73399925	-5.310134411	5.481956578e-08	3.118170468e-07	1.0
20	0	91	-13.73399925	-2.617500544	3.863714682e-08	3.142412481e-07	1.0
21	0	91	-13.73399925	-0.3240504265	2.477887406e-08	3.156095829e-07	1.0
[Neck]
18	0	166.7169952	-25.16200066	-14.97636795	3.97506426e-07	2.538071726e-07	1.0
19	0	166.7169952	-25.16200066	-15.71472454	4.010803991e-07	2.481557715e-07	1.0
20	0	166.7169952	-25.16200066	-16.33897209	4.04043675e-07	2.433417308e-07	1.0
21	0	166.7169952	-25.16200066	-16.82712936	4.06327274e-07	2.395477452e-07	1.0
[Head]
18	0	96.17900085	16.84999847	-28.00188255	-0.2439342588	-0.1279939115	1.0
19	0	96.17900085	16.84999847	-34.37768173	-0.2444657534	-0.1163275316	1.0
20	0	96.17900085	16.84999847	-38.84946823	-0.2424906045	-0.1093913317	1.0
21	0	96.17900085	16.84999847	-40.9716835	-0.2381203175	-0.109153837	1.0
[LeftEye]
18	30.6760006	64.09500122	92.83599854	0	0	0	1.0
19	30.6760006	64.09500122	92.83599854	0	0	0	1.0
20	30.6760006	64.09500122	92.83599854	0	0	0	1.0
21	30.6760006	64.09500122	92.83599854	0	0	0	1.0
[RightEye]
18	-30.6760006	64.09500122	92.83499908	0	0	0	1.0
19	-30.6760006	64.09500122	92.83499908	0	0	0	1.0
20	-30.6760006	64.09500122	92.83499908	0	0	0	1.0
21	-30.6760006	64.09500122	92.83499908	0	0	0	1.0
[LeftShoulder]
18	45.70400238	109.4599991	-26.28000069	8.150276184	5.150587559	30.8982048	1.0
19	45.70400238	109.4599991	-26.28000069	5.617204666	5.991730213	21.37137604	1.0
20	45.70400238	109.4599991	-26.28000069	3.349630117	5.811807632	13.42737579	1.0
21	45.70400238	109.4599991	-26.28000069	2.01760745	4.321479321	9.41943264	1.0
[LeftArm]
18	105.923996	-5.24600029	-22.32099915	-36.78453827	-0.212400049	6.703477383	1.0
19	105.923996	-5.24600029	-22.32099915	-19.25235939	8.822717667	-1.867799401	1.0
20	105.923996	-5.24600029	-22.32099915	-7.961694717	17.53769302	-11.33778286	1.0
21	105.923996	-5.24600029	-22.32099915	-5.116790771	20.6120224	-20.25214767	1.0
[LeftForeArm]
18	278.414978	-0.0009999999311	0	-7.004201962e-06	-44.88642883	-0.0002014985512	1.0
19	278.414978	-0.0009999999311	0	-1.477186834e-05	-67.15572357	-0.0002113416267	1.0
20	278.414978	-0.0009999999311	0	-6.64084655e-05	-84.7059021	-0.0001730402146	1.0
21	278.414978	-0.0009999999311	0	-0.0001678467233	-92.40155792	-4.57763017e-05	1.0
[LeftHand]
18	283.2879944	0	0	-49.43641281	11.81183815	30.4479084	1.0
19	283.2879944	0	0	-43.37881088	9.381374359	32.37167358	1.0
20	283.2879944	0	0	-37.91133881	6.527325153	32.56993866	1.0
21	283.2879944	0	0	-33.3600502	3.492429256	30.47237015	1.0
[LeftHandThumb1]
18	24.6609993	-15.75	26.8239994	8.499487877	-16.95156479	-26.27998352	1.0
19	24.6609993	-15.75	26.8239994	4.380207539	-12.03261089	-15.63905716	1.0
20	24.6609993	-15.75	26.8239994	1.885243058	-7.330965996	-6.45447731	1.0
21	24.6609993	-15.75	26.8239994	1.420991302	-3.769345999	-1.523069382	1.0
[LeftHandThumb2]
18	32.29800034	-18.64699936	18.64699936	68.84122467	51.51819611	49.70412827	1.0
19	32.29800034	-18.64699936	18.64699936	69.06842804	51.52528	49.90190506	1.0
20	32.29800034	-18.64699936	18.64699936	67.98699188	51.38487244	48.97269058	1.0
21	32.29800034	-18.64699936	18.64699936	67.69908142	51.34442139	48.72562408	1.0
[LeftHandThumb3]
18	26.52600098	-15.31499958	15.31499958	56.48761749	49.60771179	48.87290573	1.0
19	26.52600098	-15.31499958	15.31499958	55.87506485	49.45318222	48.44485092	1.0
20	26.52600098	-15.31499958	15.31499958	52.69547272	48.77846527	46.19834518	1.0
21	26.52600098	-15.31499958	15.31499958	48.88489151	47.8024826	43.54014969	1.0
[LeftHandThumb4]
18	19.54599953	-11.28499985	11.28499985	0	0	0	1.0
19	19.54599953	-11.28499985	11.28499985	0	0	0	1.0
20	19.54599953	-11.28499985	11.28499985	0	0	0	1.0
21	19.54599953	-11.28499985	11.28499985	0	0	0	1.0
[LeftHandIndex1]
18	91.09299469	-5.170999527	22.60099792	-5.160182476	17.91670799	-64.60998535	1.0
19	91.09299469	-5.170999527	22.60099792	-5.285900116	17.91044235	-65.74791718	1.0
20	91.09299469	-5.170999527	22.60099792	-5.325708389	17.49682236	-66.02310181	1.0
21	91.09299469	-5.170999527	22.60099792	-5.410974979	17.47498131	-66.80310822	1.0
[LeftHandIndex2]
18	36.76399994	0	0	-2.788062811	4.974992275	-58.54351807	1.0
19	36.76399994	0	0	-2.961168289	5.07588768	-60.51420212	1.0
20	36.76399994	0	0	-2.999658585	5.096221447	-60.94248581	1.0
21	36.76399994	0	0	-2.961084604	5.07459259	-60.5067749	1.0
[LeftHandIndex3]
18	28.83100128	0	0	-1.671811938	4.085612774	-44.45849228	1.0
19	28.83100128	0	0	-1.26395452	3.619504452	-38.3534584	1.0
20	28.83100128	0	0	-0.912802875	3.1379776	-32.49035263	1.0
21	28.83100128	0	0	-0.7282645106	2.824039459	-28.91551208	1.0
[LeftHandIndex4]
18	23.92700005	0	0	0	0	0	1.0
19	23.92700005	0	0	0	0	0	1.0
20	23.92700005	0	0	0	0	0	1.0
21	23.92700005	0	0	0	0	0	1.0
[LeftHandMiddle1]
18	95.33399963	0	0	-5.279388905	6.912841797	-63.39996338	1.0
19	95.33399963	0	0	-5.136277199	5.826975346	-61.9023819	1.0
20	95.33399963	0	0	-4.937309742	4.712694168	-59.89891052	1.0
21	95.33399963	0	0	-4.907846928	4.155069828	-59.52523041	1.0
[LeftHandMiddle2]
18	36.98199844	0	0	-3.453732729	5.323422432	-65.94843292	1.0
19	36.98199844	0	0	-3.697758198	5.425480843	-68.55139923	1.0
20	36.98199844	0	0	-3.790698051	5.459764004	-69.52653503	1.0
21	36.98199844	0	0	-3.784393311	5.457188129	-69.45946503	1.0
[LeftHandMiddle3]
18	29.50900078	0	0	-3.260642767	5.229533672	-63.83454514	1.0
19	29.50900078	0	0	-3.793501616	5.462161541	-69.56531525	1.0
20	29.50900078	0	0	-4.116390705	5.571626186	-72.91983795	1.0
21	29.50900078	0	0	-4.166388035	5.584805965	-73.42819214	1.0
[LeftHandMiddle4]
18	28.3390007	0	0	0	0	0	1.0
19	28.3390007	0	0	0	0	0	1.0
20	28.3390007	0	0	0	0	0	1.0
21	28.3390007	0	0	0	0	0	1.0
[LeftHandRing1]
18	91.04499817	-0.4390000105	-18.65100098	-5.39368391	-1.975022078	-62.79032516	1.0
19	91.04499817	-0.4390000105	-18.65100098	-5.432950974	-2.865396023	-62.98782349	1.0
20	91.04499817	-0.4390000105	-18.65100098	-5.364364624	-3.313611031	-62.31046677	1.0
21	91.04499817	-0.4390000105	-18.65100098	-5.379567146	-3.511612177	-62.40761185	1.0
[LeftHandRing2]
18	31.54000092	0	0	-2.871762514	5.023177147	-59.49504852	1.0
19	31.54000092	0	0	-3.200508595	5.203855991	-63.18836212	1.0
20	31.54000092	0	0	-3.367202997	5.283566952	-65.00691223	1.0
21	31.54000092	0	0	-3.374047041	5.28601408	-65.07819366	1.0
[LeftHandRing3]
18	29.37700081	0	0	-2.275064707	4.621497631	-52.40684891	1.0
19	29.37700081	0	0	-2.554517269	4.824627399	-55.80690765	1.0
20	29.37700081	0	0	-2.691855431	4.913802624	-57.41820908	1.0
21	29.37700081	0	0	-2.694443464	4.914824486	-57.44490814	1.0
[LeftHandRing4]
18	26.47500038	0	0	0	0	0	1.0
19	26.47500038	0	0	0	0	0	1.0
20	26.47500038	0	0	0	0	0	1.0
21	26.47500038	0	0	0	0	0	1.0
[LeftHandPinky1]
18	80.77799988	-4.887000084	-38.06099701	-5.62896347	-14.14357567	-62.66973114	1.0
19	80.77799988	-4.887000084	-38.06099701	-5.988624096	-15.60966873	-65.30413818	1.0
20	80.77799988	-4.887000084	-38.06099701	-6.167613983	-15.7836771	-66.64308167	1.0
21	80.77799988	-4.887000084	-38.06099701	-6.307432652	-15.90787697	-67.70627594	1.0
[LeftHandPinky2]
18	36	0	0	-2.522592068	4.794110298	-55.37614441	1.0
19	36	0	0	-3.163838863	5.183062553	-62.78049469	1.0
20	36	0	0	-3.627500296	5.399503231	-67.81513977	1.0
21	36	0	0	-3.76473093	5.449809074	-69.25241852	1.0
[LeftHandPinky3]
18	21.14200211	0	0	-1.941707492	4.345538616	-48.14253616	1.0
19	21.14200211	0	0	-1.893805027	4.301638126	-47.50310135	1.0
20	21.14200211	0	0	-1.814314008	4.227860928	-46.43574524	1.0
21	21.14200211	0	0	-1.746214986	4.162223816	-45.50503922	1.0
[LeftHandPinky4]
18	19.75699997	0	0	0	0	0	1.0
19	19.75699997	0	0	0	0	0	1.0
20	19.75699997	0	0	0	0	0	1.0
21	19.75699997	0	0	0	0	0	1.0
[RightShoulder]
18	-45.70000076	109.4620056	-26.28000069	8.15021801	-5.150615215	-30.89821053	1.0
19	-45.70000076	109.4620056	-26.28000069	5.61716795	-5.991745949	-21.37138176	1.0
20	-45.70000076	109.4620056	-26.28000069	3.349616766	-5.811813831	-13.42737579	1.0
21	-45.70000076	109.4620056	-26.28000069	2.01760745	-4.321486473	-9.419434547	1.0
[RightArm]
18	-105.9280014	-5.248000145	-22.32099915	-36.78453827	0.212522313	-6.703234196	1.0
19	-105.9280014	-5.248000145	-22.32099915	-19.25238419	-8.822660446	1.868044019	1.0
20	-105.9280014	-5.248000145	-22.32099915	-7.961737156	-17.53766823	11.33799744	1.0
21	-105.9280014	-5.248000145	-22.32099915	-5.11680603	-20.61201096	20.25234032	1.0
[RightForeArm]
18	-278.414978	0	0	-2.073625609e-07	44.88625336	2.88957267e-06	1.0
19	-278.414978	0	0	-1.021977255e-06	67.1555481	2.62588901e-06	1.0
20	-278.414978	0	0	1.056806741e-05	84.70570374	7.168592674e-06	1.0
21	-278.414978	0	0	7.629379252e-05	92.40132904	1.525867719e-05	1.0
[RightHand]
18	-283.2879944	0	0.0009999999311	-48.37774658	-11.34308243	-29.83712387	1.0
19	-283.2879944	0	0.0009999999311	-42.30175781	-8.978391647	-31.71868324	1.0
20	-283.2879944	0	0.0009999999311	-36.80599976	-6.187669754	-31.88540077	1.0
21	-283.2879944	0	0.0009999999311	-32.22012711	-3.208086729	-29.76612282	1.0
[RightHandPinky1]
18	-80.76699829	-4.885000229	-38.06000137	-4.872444153	15.2544241	61.81112289	1.0
19	-80.76699829	-4.885000229	-38.06000137	-5.181529999	16.73855782	64.4492569	1.0
20	-80.76699829	-4.885000229	-38.06000137	-5.333015919	16.92071342	65.79522705	1.0
21	-80.76699829	-4.885000229	-38.06000137	-5.450912952	17.05111504	66.86393738	1.0
[RightHandPinky2]
18	-36	0	0.0009999999311	-2.006165266	-3.810770988	55.42695236	1.0
19	-36	0	0.0009999999311	-2.515660286	-4.119898796	62.8248558	1.0
20	-36	0	0.0009999999311	-2.883950949	-4.291904449	67.853302	1.0
21	-36	0	0.0009999999311	-2.992939472	-4.331897736	69.28846741	1.0
[RightHandPinky3]
18	-21.14200211	0	0	-1.545653462	-3.455264807	48.19688797	1.0
19	-21.14200211	0	0	-1.507566929	-3.420394182	47.55757141	1.0
20	-21.14200211	0	0	-1.444348216	-3.361784935	46.4903717	1.0
21	-21.14200211	0	0	-1.390175104	-3.309630394	45.55972672	1.0
[RightHandPinky4]
18	-19.75699997	0	0	0	0	0	1.0
19	-19.75699997	0	0	0	0	0	1.0
20	-19.75699997	0	0	0	0	0	1.0
21	-19.75699997	0	0	0	0	0	1.0
[RightHandRing1]
18	-91.03599548	-0.4390000105	-18.65100098	-4.620109081	3.088649988	62.02480698	1.0
19	-91.03599548	-0.4390000105	-18.65100098	-4.655711174	3.979933739	62.21619415	1.0
20	-91.03599548	-0.4390000105	-18.65100098	-4.600534439	4.423134327	61.534832	1.0
21	-91.03599548	-0.4390000105	-18.65100098	-4.613982677	4.621857166	61.63061142	1.0
[RightHandRing2]
18	-31.54000092	0	0	-2.284999847	-3.993605137	59.54285812	1.0
19	-31.54000092	0	0	-2.546231031	-4.137116909	63.23238754	1.0
20	-31.54000092	0	0	-2.678672075	-4.20042181	65.04876709	1.0
21	-31.54000092	0	0	-2.684120893	-4.202383995	65.11994934	1.0
[RightHandRing3]
18	-29.37700081	0	0	-1.810723543	-3.674546242	52.45967865	1.0
19	-29.37700081	0	0	-2.032884836	-3.83591485	55.85775375	1.0
20	-29.37700081	0	0	-2.142046928	-3.906754255	57.46780396	1.0
21	-29.37700081	0	0	-2.144090891	-3.907567024	57.49447632	1.0
[RightHandRing4]
18	-26.47500038	0	0	0	0	0	1.0
19	-26.47500038	0	0	0	0	0	1.0
20	-26.47500038	0	0	0	0	0	1.0
21	-26.47500038	0	0	0	0	0	1.0
[RightHandMiddle1]
18	-95.32500458	0	0	-4.49542284	-5.794582844	62.69899368	1.0
19	-95.32500458	0	0	-4.380454063	-4.720544815	61.19589615	1.0
20	-95.32500458	0	0	-4.219506741	-3.621907711	59.1870575	1.0
21	-95.32500458	0	0	-4.19685936	-3.067481756	58.80913925	1.0
[RightHandMiddle2]
18	-36.98199844	0	0	-2.747410297	-4.232088089	65.98915863	1.0
19	-36.98199844	0	0	-2.941250563	-4.313132763	68.58863068	1.0
20	-36.98199844	0	0	-3.015074968	-4.340357304	69.56235504	1.0
21	-36.98199844	0	0	-3.010068893	-4.338318825	69.49536896	1.0
[RightHandMiddle3]
18	-29.50900078	0	0	-2.594006538	-4.159542084	63.87780762	1.0
19	-29.50900078	0	0	-3.017304897	-4.344288826	69.60121155	1.0
20	-29.50900078	0	0	-3.273752451	-4.431215763	72.95065308	1.0
21	-29.50900078	0	0	-3.313448429	-4.441671371	73.45814514	1.0
[RightHandMiddle4]
18	-28.3390007	0	0.0009999999311	0	0	0	1.0
19	-28.3390007	0	0.0009999999311	0	0	0	1.0
20	-28.3390007	0	0.0009999999311	0	0	0	1.0
21	-28.3390007	0	0.0009999999311	0	0	0	1.0
[RightHandIndex1]
18	-91.08300018	-5.167999744	22.60099792	-4.367600441	-16.78992081	63.98377228	1.0
19	-91.08300018	-5.167999744	22.60099792	-4.469660282	-16.77658081	65.11421204	1.0
20	-91.08300018	-5.167999744	22.60099792	-4.502912045	-16.36136627	65.38481903	1.0
21	-91.08300018	-5.167999744	22.60099792	-4.57200861	-16.33481979	66.15998077	1.0
[RightHandIndex2]
18	-36.76399994	0	0	-2.218509436	-3.955363274	58.59224319	1.0
19	-36.76399994	0	0	-2.356072903	-4.035496235	60.56105804	1.0
20	-36.76399994	0	0	-2.386656284	-4.051644325	60.98889542	1.0
21	-36.76399994	0	0	-2.356001377	-4.034460068	60.55364609	1.0
[RightHandIndex3]
18	-28.83100128	0	0	-1.331002116	-3.248747587	44.51306915	1.0
19	-28.83100128	0	0	-1.006515026	-2.878293753	38.40650177	1.0
20	-28.83100128	0	0	-0.7270354629	-2.495537043	32.53997803	1.0
21	-28.83100128	0	0	-0.5801142454	-2.245964289	28.96179581	1.0
[RightHandIndex4]
18	-23.92700005	0	0	0	0	0	1.0
19	-23.92700005	0	0	0	0	0	1.0
20	-23.92700005	0	0	0	0	0	1.0
21	-23.92700005	0	0	0	0	0	1.0
[RightHandThumb1]
18	-24.64799881	-15.72700024	26.82600021	8.030168533	19.2302227	26.89608002	1.0
19	-24.64799881	-15.72700024	26.82600021	3.64917779	14.23191643	16.1548748	1.0
20	-24.64799881	-15.72700024	26.82600021	0.9684097767	9.415180206	6.949542522	1.0
21	-24.64799881	-15.72700024	26.82600021	0.4042460918	5.76527071	2.064585924	1.0
[RightHandThumb2]
18	-32.29800034	-18.64699936	18.64699936	71.46111298	-52.88288116	-52.42191315	1.0
19	-32.29800034	-18.64699936	18.64699936	71.69633484	-52.88533783	-52.62704468	1.0
20	-32.29800034	-18.64699936	18.64699936	70.57329559	-52.76279831	-51.65977478	1.0
21	-32.29800034	-18.64699936	18.64699936	70.27415466	-52.72703552	-51.40242004	1.0
[RightHandThumb3]
18	-26.52600098	-15.31399918	15.31399918	66.06731415	-51.43773651	-56.76554489	1.0
19	-26.52600098	-15.31399918	15.31399918	65.40113068	-51.33562851	-56.28559113	1.0
20	-26.52600098	-15.31399918	15.31399918	61.97586823	-50.93770981	-53.80244064	1.0
21	-26.52600098	-15.31399918	15.31399918	57.82338715	-50.28784943	-50.81328201	1.0
[RightHandThumb4]
18	-19.54599953	-11.28499985	11.28499985	0	0	0	1.0
19	-19.54599953	-11.28499985	11.28499985	0	0	0	1.0
20	-19.54599953	-11.28499985	11.28499985	0	0	0	1.0
21	-19.54599953	-11.28499985	11.28499985	0	0	0	1.0
[LeftUpLeg]
18	82.07800293	-67.51699829	-15.99599934	-42.43052292	-4.025517941	7.43901968	1.0
19	82.07800293	-67.51699829	-15.99599934	-44.67280197	-5.152173042	7.652097702	1.0
20	82.07800293	-67.51699829	-15.99599934	-46.52199936	-5.91673851	7.863433838	1.0
21	82.07800293	-67.51699829	-15.99599934	-47.86865616	-6.313446999	8.096705437	1.0
[LeftLeg]
18	0	-443.7049866	2.845999956	99.00197601	9.712151527	-4.535149574	1.0
19	0	-443.7049866	2.845999956	99.59680939	9.820326805	-4.343951702	1.0
20	0	-443.7049866	2.845999956	99.37896729	9.910526276	-4.399553776	1.0
21	0	-443.7049866	2.845999956	98.37333679	10.01164055	-4.715966702	1.0
[LeftFoot]
18	0	-444.2789917	-29.8219986	-83.40959167	2.096374035	5.589395046	1.0
19	0	-444.2789917	-29.8219986	-84.97881317	2.864487648	4.752012253	1.0
20	0	-444.2789917	-29.8219986	-86.12950897	3.576274633	4.125033379	1.0
21	0	-444.2789917	-29.8219986	-86.6277771	4.220978737	3.763522625	1.0
[LeftToeBase]
18	0	-87.28699493	107.1060028	-1.362765215e-05	1.580827529e-06	-2.609103149e-06	1.0
19	0	-87.28699493	107.1060028	0.1692950726	8.945727927e-07	-1.556423541e-07	1.0
20	0	-87.28699493	107.1060028	-0.3699822128	-2.671526431e-07	2.957552624e-06	1.0
21	0	-87.28699493	107.1060028	-3.527845144	1.363716819e-06	-1.605673106e-06	1.0
[RightUpLeg]
18	-82.07800293	-67.51699829	-15.99599934	-115.672081	-1.375585437	-17.66963768	1.0
19	-82.07800293	-67.51699829	-15.99599934	-119.4066162	-2.70431447	-18.33085251	1.0
20	-82.07800293	-67.51699829	-15.99599934	-122.7779846	-3.921924829	-18.24212837	1.0
21	-82.07800293	-67.51699829	-15.99599934	-125.9093018	-4.845333576	-17.72953224	1.0
[RightLeg]
18	0	-443.7049866	2.861999989	79.04902649	-9.621770859	-3.196050644	1.0
19	0	-443.7049866	2.861999989	76.68745422	-9.716550827	-2.468814135	1.0
20	0	-443.7049866	2.861999989	76.12272644	-9.539197922	-1.273278952	1.0
21	0	-443.7049866	2.861999989	77.55405426	-9.236894608	-0.002907946939	1.0
[RightFoot]
18	0	-444.2770081	-29.83799934	10.44004059	-5.828605175	6.505742073	1.0
19	0	-444.2770081	-29.83799934	13.40172291	-7.268579006	6.757987499	1.0
20	0	-444.2770081	-29.83799934	14.18963146	-8.573907852	6.756851673	1.0
21	0	-444.2770081	-29.83799934	12.84587479	-9.603510857	6.747101307	1.0
[RightToeBase]
18	0	-87.28699493	107.1060028	-1.515573604e-05	-2.909377805e-08	-1.999551955e-07	1.0
19	0	-87.28699493	107.1060028	-1.515573604e-05	-2.909377805e-08	-1.999551955e-07	1.0
20	0	-87.28699493	107.1060028	-1.515573604e-05	-2.909377805e-08	-1.999551955e-07	1.0
21	0	-87.28699493	107.1060028	-1.515573604e-05	-2.909377805e-08	-1.999551955e-07	1.0
[EndOfFile]
